PathFileType	4	(X/Y/Z)	Run_400 01
DataRate	CameraRate	NumFrames	NumMarkers	Units	OrigDataRate	OrigDataStartFrame	OrigNumFrames
120	120	4	42	mm	120	162	128
Frame#	Time	LASI			RASI			LPSI			RTH1			RTH2			RTH3			LTH1			LTH2			LTH3			RTB1			RTB2			RTB3			LTB1			LTB2			LTB3			RCAL			RTOE			RMT5			LCAL			LTOE			LMT5			LACR			RACR			CLAV			C7			RUA1			RUA2			RUA3			RLEL			RMEL			LUA1			LUA2			LUA3			LLEL			LMEL			RFAsuperior			RFAradius			LFAsuperior			LFAradius			LFAulna			RFAulna			RPSI			
		X1	Y1	Z1	X2	Y2	Z2	X3	Y3	Z3	X4	Y4	Z4	X5	Y5	Z5	X6	Y6	Z6	X7	Y7	Z7	X8	Y8	Z8	X9	Y9	Z9	X10	Y10	Z10	X11	Y11	Z11	X12	Y12	Z12	X13	Y13	Z13	X14	Y14	Z14	X15	Y15	Z15	X16	Y16	Z16	X17	Y17	Z17	X18	Y18	Z18	X19	Y19	Z19	X20	Y20	Z20	X21	Y21	Z21	X22	Y22	Z22	X23	Y23	Z23	X24	Y24	Z24	X25	Y25	Z25	X26	Y26	Z26	X27	Y27	Z27	X28	Y28	Z28	X29	Y29	Z29	X30	Y30	Z30	X31	Y31	Z31	X32	Y32	Z32	X33	Y33	Z33	X34	Y34	Z34	X35	Y35	Z35	X36	Y36	Z36	X37	Y37	Z37	X38	Y38	Z38	X39	Y39	Z39	X40	Y40	Z40	X41	Y41	Z41	X42	Y42	Z42	

153	1.908333	1141.917257	1012.468626	-452.490218	1120.114695	1044.666149	-225.514499	978.3559	1077.052566	-416.498442	1119.215946	912.215911	-170.166297	1254.315203	817.59342	-197.191277	1247.519589	711.652915	-211.904754	1023.515348	863.422382	-524.080764	1037.563446	745.871586	-485.066664	910.221363	672.907035	-471.957626	1361.121796	507.264215	-267.607927	1303.508996	451.912854	-207.721113	1329.369933	327.054939	-273.889137	820.486171	443.772168	-408.832857	728.404978	397.996988	-462.995862	677.840294	309.168332	-396.496949	1199.723834	196.048484	-307.305703	1407.633893	162.21439	-326.537018	1387.015305	116.035259	-229.160083	529.760347	323.977525	-397.83732	593.593539	138.330027	-327.343274	557.921904	113.547744	-427.20128	1143.310853	1511.577409	-531.29554	1051.74342	1510.209953	-183.673169	1156.540347	1464.085396	-310.399814	1058.448224	1543.89977	-374.99709	993.387913	1460.929681	-148.543913	965.156571	1377.471466	-155.272283	888.999049	1412.902971	-182.668934	808.00602	1330.490824	-168.057457	822.30048	1318.514405	-232.090868	1131.114099	1433.642284	-586.692908	1063.205874	1380.956081	-582.470976	1131.398622	1331.572244	-610.616613	1076.524262	1219.878791	-644.63932	1019.222838	1216.653181	-593.486488	844.912633	1259.600801	-117.940927	893.0621180000001	1080.614217	-79.47833799999999	1149.736841	1252.466827	-610.221018	1221.825305	1355.903826	-465.725728	1257.136377	1300.67542	-454.282441	832.795045	1068.148922	-109.859046	963.29838	1082.978582	-318.677337	
154	1.916667	1143.130109	1016.083023	-452.992547	1121.941489	1046.859904	-226.126192	980.182191	1081.297859	-416.923729	1117.077854	910.345499	-171.082505	1252.36067	813.98438	-196.777127	1243.398694	707.9613000000001	-211.239841	1024.053113	867.147236	-523.483664	1037.953634	749.718168	-486.313823	912.090101	675.548091	-471.370377	1363.514313	504.891435	-267.678363	1311.780938	445.353628	-207.690049	1347.552622	323.370318	-275.250568	816.7820850000001	447.924404	-408.036853	723.2198540000001	406.597325	-462.879615	666.862722	321.223085	-396.68194	1228.958612	183.7815	-308.726923	1438.382058	163.751085	-330.099786	1421.484034	113.139762	-234.531429	521.101914	344.573936	-402.65641	571.200485	157.298826	-325.517173	536.103122	131.801548	-425.163196	1145.01369	1515.044105	-530.428975	1052.212244	1511.941087	-183.067593	1157.159122	1466.508394	-309.646649	1059.485547	1546.902855	-374.186032	993.477107	1463.688271	-148.254467	964.576072	1380.177776	-155.728844	888.813139	1416.80769	-183.471889	807.154224	1334.158057	-170.136962	821.807684	1322.826823	-234.070597	1132.869273	1437.368966	-586.354074	1064.507296	1385.33381	-583.0933230000001	1132.562436	1336.063845	-611.455753	1076.571639	1224.691498	-646.036462	1018.749738	1222.107618	-596.074896	843.925157	1263.440763	-120.029055	893.011306	1084.745627	-81.469219	1149.922356	1256.01774	-610.930625	1220.534042	1358.981796	-464.949269	1255.03795	1303.365003	-452.600441	833.077084	1071.651273	-112.281035	965.680522	1087.079496	-318.810775	
155	1.925	1144.176377	1019.382136	-453.662914	1123.639964	1047.958376	-226.647576	981.582589	1084.593292	-416.868813	1114.384223	906.782611	-172.101437	1249.975495	808.7852339999999	-195.894643	1239.222691	702.841824	-210.622419	1024.520551	870.6005740000001	-522.839076	1040.06412	752.249367	-486.669746	916.143175	675.819799	-470.965142	1364.316665	501.906558	-268.264703	1318.201425	439.128272	-208.208489	1362.902448	320.51656	-276.97424	814.479922	450.817797	-407.006051	719.3330979999999	414.608545	-462.459649	656.8092339999999	333.800779	-396.58937	1255.045666	174.014941	-310.663681	1464.96199	166.580199	-333.41205	1451.788439	111.865082	-239.761311	512.87488	365.64376	-407.725761	550.479202	178.568573	-323.538357	516.240888	151.746046	-423.222973	1146.350345	1517.630413	-529.68411	1053.005613	1512.910852	-182.154269	1157.868555	1468.411781	-308.890426	1060.458806	1549.2084	-373.10244	993.881314	1465.438956	-147.540629	964.5856700000001	1381.849653	-156.114697	889.120419	1419.456398	-183.951082	806.866368	1336.71018	-171.985214	821.888059	1325.938013	-235.73738	1134.150946	1440.178669	-586.2051279999999	1065.412993	1389.200756	-584.076562	1133.111118	1339.587947	-611.994638	1075.692258	1228.879358	-647.4801639999999	1017.499666	1226.986473	-598.744532	843.465515	1266.16013	-121.892829	893.504116	1087.794109	-83.288797	1149.278856	1258.395429	-611.546361	1220.010044	1359.221055	-464.144119	1253.385567	1302.739825	-451.155813	833.907907	1074.02809	-114.704535	967.844206	1089.837469	-318.391701	
156	1.933333	1145.193655	1022.287526	-454.482118	1125.255011	1048.209641	-227.100022	982.583907	1086.757869	-416.409688	1111.599613	902.635415	-172.86908	1246.875455	802.254585	-194.919314	1234.642003	696.656297	-210.281127	1025.457431	873.140652	-522.062426	1043.878162	753.324789	-485.791227	921.9798070000001	674.212262	-470.537893	1363.77889	498.622799	-269.295672	1322.531965	433.468023	-209.158956	1374.999951	318.385072	-278.670522	813.484501	453.181604	-405.6064	716.984566	422.504148	-461.904316	648.211641	347.060317	-396.451152	1277.092631	166.383151	-312.911326	1486.88438	170.373375	-336.063611	1477.153269	112.07568	-244.126472	506.109088	387.303651	-412.62853	532.239101	201.482751	-321.968717	498.466475	173.211394	-421.515138	1147.245882	1519.334675	-528.932135	1054.1476	1513.157096	-180.957708	1158.6515	1469.727148	-308.121132	1061.34372	1550.745395	-371.779062	994.62752	1466.215378	-146.470716	965.204215	1382.528516	-156.401701	889.931975	1420.800847	-184.114501	807.197241	1338.196847	-173.513211	822.613116	1327.811167	-237.064079	1134.891942	1442.247279	-586.052217	1066.050554	1392.608046	-585.227486	1133.017212	1342.091339	-612.1990939999999	1073.852581	1232.495437	-648.907751	1015.411252	1231.343282	-601.196508	843.616165	1267.700989	-123.506596	894.60094	1089.638639	-85.063602	1147.802147	1259.645746	-612.053745	1220.162623	1356.705936	-463.319806	1251.997264	1298.897909	-450.10513	835.305263	1075.25989	-117.131563	969.638417	1091.133258	-317.648996	
